<svg xmlns="http://www.w3.org/2000/svg" width="1200" height="630" viewBox="0 0 1200 630">
  <defs><radialGradient id="g" cx="78%" cy="45%"><stop offset="0" stop-color="#11365f"/><stop offset=".48" stop-color="#08182c"/><stop offset="1" stop-color="#050912"/></radialGradient><pattern id="p" width="58" height="58" patternUnits="userSpaceOnUse"><path d="M58 0H0V58" fill="none" stroke="#4da3ff" stroke-opacity=".055"/></pattern><filter id="glow"><feGaussianBlur stdDeviation="9" result="b"/><feMerge><feMergeNode in="b"/><feMergeNode in="SourceGraphic"/></feMerge></filter></defs>
  <rect width="1200" height="630" fill="url(#g)"/><rect width="1200" height="630" fill="url(#p)"/>
  <g transform="translate(790 315)" fill="none" stroke="#4da3ff"><circle r="190" opacity=".14"/><circle r="126" opacity=".24" stroke-dasharray="4 9"/><circle r="54" opacity=".65"/><circle r="13" fill="#4da3ff" filter="url(#glow)"/><path d="M-175-74 0 0 122-148M0 0l164 94M0 0l-121 149" opacity=".18"/><g fill="#4da3ff" stroke="none"><circle cx="-175" cy="-74" r="5"/><circle cx="122" cy="-148" r="5"/><circle cx="164" cy="94" r="5"/><circle cx="-121" cy="149" r="5"/></g></g>
  <g transform="translate(70 62)"><g transform="rotate(45 18 18)" fill="#4da3ff"><rect width="11" height="11"/><rect x="18" width="11" height="11"/><rect y="18" width="11" height="11" fill="none" stroke="#4da3ff" stroke-width="3"/></g><text x="48" y="28" fill="#eef6ff" font-family="Arial,sans-serif" font-size="29" font-weight="700">iRobot<tspan fill="#4da3ff">X</tspan></text></g>
  <text x="70" y="300" fill="#eef6ff" font-family="Arial,sans-serif" font-size="72" font-weight="600" letter-spacing="-4">Built for what</text><text x="70" y="375" fill="#4da3ff" font-family="Arial,sans-serif" font-size="72" font-weight="600" letter-spacing="-4">comes next.</text><text x="74" y="435" fill="#8b9c93" font-family="monospace" font-size="15" letter-spacing="3">TECHNOLOGY INNOVATION · CALGARY · SINCE 2006</text>
</svg>
